<svg height="512pt" viewBox="-41 0 512 512" width="512pt" xmlns="http://www.w3.org/2000/svg" xmlns:xlink="http://www.w3.org/1999/xlink"><linearGradient id="a" gradientUnits="userSpaceOnUse" x1=".0002" x2="430.5198" y1="256" y2="256"><stop offset="0" stop-color="#80d8ff"/><stop offset="1" stop-color="#ea80fc"/></linearGradient><path d="m405.84375 391.847656c-11.898438-22.601562-27.921875-43.058594-46.964844-60.15625 31.398438-33.457031 51.265625-77.851562 53.207032-126.777344.003906-.058593.003906-.117187.007812-.175781.101562-2.566406.167969-5.144531.167969-7.738281 0-108.625-88.375-197-197-197-108.628907 0-197 88.375-197 197 0 2.570312.0625 5.125.160156 7.671875.003906.09375.007813.191406.011719.285156 1.953125 48.910157 21.820312 93.285157 53.207031 126.734375-19.042969 17.097656-35.066406 37.558594-46.964844 60.15625-16.144531 30.660156-24.675781 65.292969-24.675781 100.152344 0 11.046875 8.953125 20 20 20h390.519531c11.046875 0 20-8.953125 20-20 0-34.859375-8.53125-69.492188-24.675781-100.152344zm-346.269531-174.507812c28.429687-11.988282 54.589843-29.097656 77.019531-50.386719 47.382812 44.980469 110.511719 70.40625 176.296875 70.40625 18.820313 0 37.417969-2.042969 55.589844-6.074219-15.683594 70.136719-78.425781 122.714844-153.21875 122.714844-79.679688 0-145.683594-59.664062-155.6875-136.660156zm155.6875-177.339844c83.933593 0 152.695312 66.210938 156.800781 149.144531-19.171875 5.457031-39.019531 8.214844-59.171875 8.214844-61.5625 0-120.375-26.398437-161.359375-72.425781-3.796875-4.261719-9.230469-6.703125-14.9375-6.703125s-11.144531 2.441406-14.9375 6.703125c-17.476562 19.625-38.414062 35.875-61.546875 47.964844 11.628906-75.167969 76.773437-132.898438 155.152344-132.898438zm-174.109375 432c5.101562-44.140625 26.921875-84.984375 60.957031-113.828125 32.042969 22.5625 71.074219 35.828125 113.152344 35.828125 42.074219 0 81.105469-13.265625 113.148437-35.828125 34.035156 28.84375 55.855469 69.6875 60.957032 113.828125zm0 0" fill="url(#a)"/></svg>